<svg xmlns="http://www.w3.org/2000/svg" version="1.1" xmlns:xlink="http://www.w3.org/1999/xlink" xmlns:svgjs="http://svgjs.com/svgjs" width="1440" height="560" preserveAspectRatio="none" viewBox="0 0 1440 560"><g mask="url(&quot;#SvgjsMask1012&quot;)" fill="none"><path d="M121.22 0C150.37 37.59 101.13 76.97 108.57 140C110.52 156.47 122.61 159.01 140 159.01C186.45 159.01 229.41 171.09 236.25 140C246.91 91.58 162.03 41.49 175 0C183.91 -28.51 227.5 0 280 0C350 0 350 0 420 0C479.67 0 516.18 -32.07 539.34 0C566.74 37.93 513.36 77.55 521.11 140C523.69 160.84 538.67 166.58 560 166.58C598.5 166.58 637.9 169.6 640.77 140C645.97 86.31 559.73 38.82 576.15 0C589.34 -31.18 638.08 0 700 0C758.9 0 770.5 -17.57 817.8 0C840.5 8.43 823.01 29.92 840 52C876.89 99.92 925.56 98.19 925.56 140C925.56 178.01 886.09 180.62 840 211.63C782.06 250.62 717.5 247.21 717.5 280C717.5 312.02 776.62 337.02 840 341.25C907.87 345.77 912.01 323.19 980 297.5C993.07 292.56 991.47 289.25 1002.11 280C1061.47 228.4 1062.16 229.05 1120 175.81C1138.21 159.05 1154.22 159.02 1154.22 140C1154.22 117.78 1136.79 116.89 1120 93.33C1086.91 46.89 1054.47 29.64 1054.47 0C1054.47 -17.03 1087.24 0 1120 0C1190 0 1190 0 1260 0C1330 0 1330 0 1400 0C1470 0 1496.25 -26.25 1540 0C1566.25 15.75 1552.28 46.38 1540 84C1529.43 116.38 1494.29 114.21 1494.29 140C1494.29 161.2 1531.59 152.21 1540 177.97C1554.44 222.21 1540 228.99 1540 280C1540 350 1540 350 1540 420C1540 490 1575 525 1540 560C1505 595 1470 560 1400 560C1345.22 560 1319.97 590.43 1290.43 560C1252.03 520.43 1270.06 490.6 1264.12 420C1258.29 350.6 1268.77 349.12 1266.89 280C1266.71 273.45 1264.21 268.65 1260 268.65C1254.76 268.65 1254.52 274.94 1248 280C1184.52 329.31 1180.69 325.26 1120 377.39C1099.19 395.26 1085 397.68 1085 420C1085 446.2 1096.73 452.59 1120 474.44C1171.27 522.59 1234.07 536.23 1234.07 560C1234.07 579.01 1177.03 560 1120 560C1050 560 1050 560 980 560C910 560 910 560 840 560C778.49 560 743.73 592.71 716.97 560C686.46 522.71 730.47 489.04 725.45 420C721.99 372.38 711.68 326.67 700 326.67C688.45 326.67 706.24 384.02 679 420C636.24 476.46 615.27 461.61 560 511.54C537.77 531.61 549.71 551.1 524 560C479.71 575.33 472 560 420 560C352.6 560 342.98 571.56 285.19 560C272.98 557.56 282.91 532 280 532C277.06 532 285.89 557.52 273.49 560C215.89 571.52 206.75 560 140 560C70 560 35 595 0 560C-35 525 0 490 0 420C0 350 0 350 0 280C0 210 0 210 0 140C0 70 -32.48 37.52 0 0C28.13 -32.48 96.08 -32.41 121.22 0" stroke="rgba(57, 89, 102, 1)" stroke-width="2"></path><path d="M78.54 0C90.61 45.51 20.29 84.55 37.14 140C51.02 185.66 84.63 180.94 140 202.22C206.06 227.61 217 206.11 280 233.33C307 245 320 256.15 320 280C320 305.41 303.32 309.09 280 331.85C231.58 379.09 198.11 363.98 176.52 420C154.15 478.05 205.42 508.9 192.09 560C187.16 578.9 166.05 560 140 560C102.66 560 99.98 569.7 65.33 560C29.98 550.1 14.06 550.93 0 520.8C-18.6 480.93 0 470.4 0 420C0 350 0 350 0 280C0 210 0 210 0 140C0 70 -25.16 44.84 0 0C14.11 -25.16 72.04 -24.49 78.54 0" stroke="rgba(57, 89, 102, 1)" stroke-width="2"></path><path d="M280 40C265.56 21.25 254.55 13.01 254.55 0C254.55 -6.99 267.27 0 280 0C350 0 350 0 420 0C450.99 0 476.46 -21.23 481.97 0C494.61 48.77 477.88 73.73 456.3 140C446.9 168.86 441.03 190.26 420 190.26C394.06 190.26 388.34 167.89 362.35 140C318.34 92.76 319.46 91.25 280 40" stroke="rgba(57, 89, 102, 1)" stroke-width="2"></path><path d="M700 106.21C661.15 106.21 621.03 33.26 621.03 0C621.03 -19.85 660.51 0 700 0C737.56 0 775.12 -19.44 775.12 0C775.12 33.67 738.19 106.21 700 106.21" stroke="rgba(57, 89, 102, 1)" stroke-width="2"></path><path d="M1232 140C1201.12 72.81 1170.88 45.58 1180 0C1184.88 -24.42 1220 0 1260 0C1330 0 1330 0 1400 0C1466.32 0 1527.75 -29.9 1532.63 0C1539.18 40.1 1420.87 76.07 1422.86 140C1424.56 194.72 1494.26 182.62 1540 237.29C1552.83 252.62 1540 258.64 1540 280C1540 322 1548.97 324.36 1540 364C1533.12 394.36 1528.26 394.97 1508.3 420C1458.26 482.76 1450.52 539.58 1400 539.58C1354.17 539.58 1334.93 486.28 1315.59 420C1297.06 356.49 1339.02 345.29 1324.26 280C1311.22 222.32 1294.03 225.68 1260 174.05C1247.9 155.68 1241.12 159.83 1232 140" stroke="rgba(57, 89, 102, 1)" stroke-width="2"></path><path d="M474.69 280C501.75 235.09 516.94 210.89 560 210.89C604.35 210.89 642.78 235.32 649.51 280C658.53 339.87 626.96 354.95 591.5 420C582.2 437.06 578.62 444.23 560 444.23C499.87 444.23 453.97 458.44 434 420C411.31 376.32 438.75 339.64 474.69 280" stroke="rgba(57, 89, 102, 1)" stroke-width="2"></path><path d="M1094.21 280C1094.21 268.82 1106.87 257.21 1120 257.21C1133.77 257.21 1148 268.83 1148 280C1148 290.88 1133.79 301.3 1120 301.3C1106.89 301.3 1094.21 290.87 1094.21 280" stroke="rgba(57, 89, 102, 1)" stroke-width="2"></path><path d="M831.52 420C833.73 415.4 835.13 415.8 840 414.17C909.37 391.01 916.86 368.4 980 370.42C1008.11 371.32 1022.5 393.19 1022.5 420C1022.5 455.17 1002.45 457.93 980 494.38C959.33 527.93 967.78 545.22 936.25 560C897.78 578.03 888.13 560 840 560C805 560 771.33 581.98 770 560C767.09 511.98 798.73 488.32 831.52 420" stroke="rgba(57, 89, 102, 1)" stroke-width="2"></path><path d="M350 560C350 513.78 388.3 425 420 425C450.3 425 474 510.78 474 560C474 578.28 447 560 420 560C385 560 350 581.28 350 560" stroke="rgba(57, 89, 102, 1)" stroke-width="2"></path><path d="M35.85 0C35.85 32.44 9.3 89.09 0 89.09C-8.63 89.09 -12.78 31.76 0 0C5.14 -12.78 35.85 -12.11 35.85 0" stroke="rgba(57, 89, 102, 1)" stroke-width="2"></path><path d="M420 21.54C414.76 21.54 405.26 6.88 405.26 0C405.26 -3.89 412.63 0 420 0C422.29 0 424.59 -1.86 424.59 0C424.59 8.91 424.42 21.54 420 21.54" stroke="rgba(57, 89, 102, 1)" stroke-width="2"></path><path d="M700 45.86C683.22 45.86 665.9 14.36 665.9 0C665.9 -8.57 682.95 0 700 0C716.22 0 732.44 -8.39 732.44 0C732.44 14.54 716.49 45.86 700 45.86" stroke="rgba(57, 89, 102, 1)" stroke-width="2"></path><path d="M73.33 280C73.33 256.92 106.06 245.43 140 245.43C179.39 245.43 220 256.19 220 280C220 309.37 178.37 351.79 140 351.79C105.03 351.79 73.33 310.1 73.33 280" stroke="rgba(57, 89, 102, 1)" stroke-width="2"></path><path d="M529.38 280C529.38 264.08 544.54 255.19 560 255.19C575.92 255.19 592.13 263.87 592.13 280C592.13 308.94 575.76 345.33 560 345.33C544.38 345.33 529.38 309.15 529.38 280" stroke="rgba(57, 89, 102, 1)" stroke-width="2"></path><path d="M1381.64 280C1385.86 256.35 1383.38 235.2 1400 235.2C1429.89 235.2 1466.7 245.14 1474.67 280C1487.83 337.54 1468.22 355.1 1442.26 420C1430.89 448.43 1419.71 466.67 1400 466.67C1382.11 466.67 1369.71 446.94 1367.06 420C1360.53 353.61 1369.39 348.75 1381.64 280" stroke="rgba(57, 89, 102, 1)" stroke-width="2"></path><path d="M0 373.33C15.34 373.33 51.33 399.21 51.33 420C51.33 437.94 16.95 450.8 0 450.8C-8.72 450.8 0 435.4 0 420C0 396.66 -10.32 373.33 0 373.33" stroke="rgba(57, 89, 102, 1)" stroke-width="2"></path><path d="M414.81 560C414.81 556.58 417.65 550 420 550C422.25 550 424 556.35 424 560C424 561.35 422 560 420 560C417.4 560 414.81 561.58 414.81 560" stroke="rgba(57, 89, 102, 1)" stroke-width="2"></path><path d="M823.03 560C823.03 547.32 830.3 523.87 840 523.87C850.45 523.87 863.33 548.29 863.33 560C863.33 566.35 851.66 560 840 560C831.51 560 823.03 565.39 823.03 560" stroke="rgba(57, 89, 102, 1)" stroke-width="2"></path></g><defs><mask id="SvgjsMask1012"><rect width="1440" height="560" fill="#ffffff"></rect></mask></defs></svg>